<svg xmlns="http://www.w3.org/2000/svg" width="411.30291" height="443.59056" viewBox="0 0 411.30291 443.59056" style="opacity:0.5">
  <g>
    <path d="M106.55734,210.24422c-14.3-4.8-26.2-9.5-40.4-21.4,0,0-2.4,28.5,11.9,52.3C85.15735,229.24422,94.65735,219.74422,106.55734,210.24422Z" style="fill: #fff"/>
    <path d="M66.05734,146.04421l-14.2,16.6c11.9,14.3,40.4,30.9,66.6,38.1,7.1-4.8,26.2-16.7,40.4-23.8l-45.2-26.2s26.2-16.7,88-33.3a349.1587,349.1587,0,0,0-47.6,35.7l40.4,23.8s-71.4,33.3-109.4,102.3h47.6s54.7,99.9,140.4,157v-57.1s57.1-7.1,88-30.9l-30.9-19s35.7-4.8,69-38.1l-40.4-23.8c0-2.4,23.8-7.1,50-33.3l-47.6-26.2s23.8-4.8,40.4-21.4l-123.7-71.4,14.3-19H99.45734l-11.9,19s-30.9,7.1-50,26.2Zm33.4-19,11.9-19h33.3C144.65735,107.94421,127.95734,129.34423,99.45734,127.04421Z" style="fill: #fff"/>
    <path d="M111.25733,38.94422s4.8-9.5,16.7-16.7c14.3,7.1,19,16.7,19,16.7a88.99038,88.99038,0,0,1-2.4,19h19c-2.4-4.8-4.8-16.7-4.8-28.5,0,0,9.5-14.3,28.5-26.2,19,11.9,28.5,26.2,28.5,26.2a100.94833,100.94833,0,0,1-4.8,28.5h19a88.98933,88.98933,0,0,1-2.4-19s4.8-9.5,16.7-16.7c11.9,7.1,16.7,16.7,16.7,16.7a88.98933,88.98933,0,0,1-2.4,19v21.4h-147.3v-21.4C113.65735,55.64422,111.25733,46.14422,111.25733,38.94422Z" style="fill: #fff"/>
  </g>
  <path d="M111.72946,364.28c-.22389.073-.45167.13587-.67108.22048q-4.01064,1.54643-8.07736,2.93855c-.19062.0653-.37412.15139-.56093.22778a43.61129,43.61129,0,0,1-4.59957,1.19715,76.16054,76.16054,0,0,1-32.32638.07194,77.81567,77.81567,0,0,1-43.48272-26.21732A86.95947,86.95947,0,0,1,14.2853,331.725c-1.49888-2.48452-2.91563-5.01385-4.20351-7.61235A72.43388,72.43388,0,0,1,5.75136,313.429,55.37755,55.37755,0,0,1,3.15422,297.1073a60.16346,60.16346,0,0,1,1.98739-15.21014,92.694,92.694,0,0,1,4.07318-12.07662,195.48839,195.48839,0,0,1,8.68084-18.05919c.70071-1.30913,1.41483-2.61134,2.09755-3.92979a36.81283,36.81283,0,0,0,4.05293-19.47381A44.72838,44.72838,0,0,0,22.205,218.3326a51.013,51.013,0,0,0-2.61063-6.796,58.30709,58.30709,0,0,0-4.40487-7.84091q-1.67367-2.533-3.54519-4.92289a21.16814,21.16814,0,0,1-3.96881-7.6772,11.40759,11.40759,0,0,1,.57758-8.00266,11.03749,11.03749,0,0,1,4.14543-4.59833,16.841,16.841,0,0,1,6.8164-2.40408,24.60278,24.60278,0,0,1,12.13773,1.38652,40.11764,40.11764,0,0,1,11.87544,7.02705,55.36677,55.36677,0,0,1,10.09743,11.26442,91.27223,91.27223,0,0,1,5.12569,8.23994c1.05063,1.92314,2.02806,3.88379,2.90928,5.89486a48.63381,48.63381,0,0,1,1.871,4.80837,47.36415,47.36415,0,0,1,2.39816,17.03275,36.31919,36.31919,0,0,1-2.54917,11.30608c-.30805.78533-.641,1.56089-.95469,2.344a8.26573,8.26573,0,0,0-.60637,2.54865,2.305,2.305,0,0,0,2.79107,2.68329,5.64931,5.64931,0,0,0,.89118-.17384,12.43468,12.43468,0,0,0,3.56423-1.655q13.38646-8.7239,26.77456-17.44531,9.52979-6.21438,19.05059-12.44253,12.36521-8.06823,24.73529-16.129,12.36782-8.06429,24.73574-16.12846c2.42861-1.583,4.85127-3.17541,7.2947-4.73529a18.51624,18.51624,0,0,1,9.0204-2.99727,13.20593,13.20593,0,0,1,9.635,3.22695,19.69337,19.69337,0,0,1,4.32528,5.43053,17.53407,17.53407,0,0,1,1.17286,2.57563,14.1546,14.1546,0,0,1-1.54913,13.23636,17.94591,17.94591,0,0,1-5.15518,5.2219q-8.24936,5.49245-16.51706,10.95733-9.52158,6.31893-19.03915,12.64391-9.18087,6.10066-18.3578,12.20723c-.27574.1834-.54214.38089-.80716.5678.13057.31494.40532.26594.62066.29835a25.13286,25.13286,0,0,1,6.021,1.71247,19.42377,19.42377,0,0,1,4.68275,2.78541,14.91757,14.91757,0,0,1,5.17536,8.36288,20.08513,20.08513,0,0,1,.50529,6.92771,20.69619,20.69619,0,0,1-5.00956,11.40641c-.21233.24972-.51393.43775-.62253.8395.43.01809.8231.02886,1.21547.05209a14.60051,14.60051,0,0,1,7.42116,2.39928,12.38919,12.38919,0,0,1,4.31033,4.86836,18.73294,18.73294,0,0,1,1.34473,14.14306,17.7215,17.7215,0,0,1-5.93168,8.63307c-.25553.21008-.58885.34182-.75.6708.04058.19736.2007.09627.30477.11331a3.94919,3.94919,0,0,0,.40365.0229,10.38573,10.38573,0,0,1,5.9873,2.18733,10.09005,10.09005,0,0,1,2.82822,3.51828,15.328,15.328,0,0,1,.219,13.39879,26.03374,26.03374,0,0,1-3.25578,5.46617,37.6325,37.6325,0,0,1-4.73715,5.11546,18.62347,18.62347,0,0,1-2.63916,1.86258Q141.488,346.518,130.78441,353.24361c-3.36606,2.11921-6.72341,4.25235-10.097,6.35954a63.85156,63.85156,0,0,1-6.9307,3.75945A18.24165,18.24165,0,0,1,111.72946,364.28Z" style="fill: #f26522"/>
</svg>
